<svg xmlns="http://www.w3.org/2000/svg" viewBox="0 0 49.63 26.58"><defs><style>.cls-1{fill:#fcf7e4;}</style></defs><title>double-dose</title><g id="Layer_2" data-name="Layer 2"><g id="Layer_1-2" data-name="Layer 1"><path class="cls-1" d="M49.47.23A.62.62,0,0,0,49,0H28.19a.66.66,0,0,0-.65.75c0,.13,2,13,3.58,23.91a2.25,2.25,0,0,0,2.16,1.92h10.6A2.25,2.25,0,0,0,46,24.66C47.65,13.72,49.61.88,49.62.75A.62.62,0,0,0,49.47.23ZM44.75,24.47a.94.94,0,0,1-.87.8H33.28a.93.93,0,0,1-.86-.8c-.34-2.31-.69-4.7-1-7a11.1,11.1,0,0,0,7.2,2.47,11.11,11.11,0,0,0,7.21-2.47C45.44,19.77,45.08,22.16,44.75,24.47Zm1.38-9.36c-1.4,2.12-4.35,3.48-7.55,3.48S32.44,17.23,31,15.11C30.09,8.82,29.25,3.28,29,1.31H48.21C47.91,3.28,47.07,8.82,46.13,15.11Z"/><path class="cls-1" d="M21.94.23a.66.66,0,0,0-.5-.23H.66a.63.63,0,0,0-.5.23A.62.62,0,0,0,0,.75c0,.13,2,13,3.58,23.91a2.25,2.25,0,0,0,2.16,1.92h10.6a2.25,2.25,0,0,0,2.16-1.92C20.12,13.72,22.07.88,22.09.75A.66.66,0,0,0,21.94.23ZM17.21,24.47a.93.93,0,0,1-.86.8H5.75a.93.93,0,0,1-.86-.8c-.34-2.31-.7-4.7-1-7a11.11,11.11,0,0,0,7.21,2.47,11.06,11.06,0,0,0,7.2-2.47C17.9,19.77,17.55,22.16,17.21,24.47Zm1.39-9.36c-1.41,2.12-4.35,3.48-7.55,3.48S4.9,17.23,3.5,15.11C2.56,8.82,1.72,3.28,1.42,1.31H20.68C20.38,3.28,19.54,8.82,18.6,15.11Z"/></g></g></svg>